<svg xmlns="http://www.w3.org/2000/svg">
    <symbol id="search-icon" viewBox="0 0 25 25">
        <path d="M21.172 24l-7.387-7.387c-1.388.874-3.024 1.387-4.785 1.387-4.971 0-9-4.029-9-9s4.029-9 9-9 9 4.029 9 9c0 1.761-.514 3.398-1.387 4.785l7.387 7.387-2.828 2.828zm-12.172-8c3.859 0 7-3.14 7-7s-3.141-7-7-7-7 3.14-7 7 3.141 7 7 7z"/>
    </symbol>
    <symbol id="heart-icon" viewBox="0 0 25 25">
        <path d="M12 4.248c-3.148-5.402-12-3.825-12 2.944 0 4.661 5.571 9.427 12 15.808 6.43-6.381 12-11.147 12-15.808 0-6.792-8.875-8.306-12-2.944z"/>
    </symbol>
    <symbol id="left-arrow-icon" viewBox="0 0 25 25">
        <path d="M3 12l18-12v24z"/>
    </symbol>
    <symbol id="right-arrow-icon" viewBox="0 0 25 25">
        <path d="M21 12l-18 12v-24z"/>
    </symbol>
    <symbol id="watch-icon" viewBox="0 0 25 25">
        <path d="M13 12l-.688-4h-.609l-.703 4c-.596.347-1 .984-1 1.723 0 1.104.896 2 2 2s2-.896 2-2c0-.739-.404-1.376-1-1.723zm-1-8c-5.522 0-10 4.477-10 10s4.478 10 10 10 10-4.477 10-10-4.478-10-10-10zm0 18c-4.411 0-8-3.589-8-8s3.589-8 8-8 8 3.589 8 8-3.589 8-8 8zm-2-19.819v-2.181h4v2.181c-1.438-.243-2.592-.238-4 0zm9.179 2.226l1.407-1.407 1.414 1.414-1.321 1.321c-.462-.484-.964-.926-1.5-1.328z"/>
    </symbol>
    <symbol id="people-icon" viewBox="0 0 25 25">
        <path d="M17.997 18h-11.995l-.002-.623c0-1.259.1-1.986 1.588-2.33 1.684-.389 3.344-.736 2.545-2.209-2.366-4.363-.674-6.838 1.866-6.838 2.491 0 4.226 2.383 1.866 6.839-.775 1.464.826 1.812 2.545 2.209 1.49.344 1.589 1.072 1.589 2.333l-.002.619zm4.811-2.214c-1.29-.298-2.49-.559-1.909-1.657 1.769-3.342.469-5.129-1.4-5.129-1.265 0-2.248.817-2.248 2.324 0 3.903 2.268 1.77 2.246 6.676h4.501l.002-.463c0-.946-.074-1.493-1.192-1.751zm-22.806 2.214h4.501c-.021-4.906 2.246-2.772 2.246-6.676 0-1.507-.983-2.324-2.248-2.324-1.869 0-3.169 1.787-1.399 5.129.581 1.099-.619 1.359-1.909 1.657-1.119.258-1.193.805-1.193 1.751l.002.463z"/>
    </symbol>
    <symbol id="like-icon" viewBox="0 0 24 26">
        <path d="M12 4.248c-3.148-5.402-12-3.825-12 2.944 0 4.661 5.571 9.427 12 15.808 6.43-6.381 12-11.147 12-15.808 0-6.792-8.875-8.306-12-2.944z"/>
    </symbol>
    <symbol id="plus-icon" viewBox="0 0 25 25">
        <path d="M12 0c-6.627 0-12 5.373-12 12s5.373 12 12 12 12-5.373 12-12-5.373-12-12-12zm7 14h-5v5h-4v-5h-5v-4h5v-5h4v5h5v4z"/>
    </symbol>
    <symbol id="minus-icon" viewBox="0 0 25 25">
        <path d="M12 0c-6.627 0-12 5.373-12 12s5.373 12 12 12 12-5.373 12-12-5.373-12-12-12zm7 14h-14v-4h14v4z"/>
    </symbol>
    <symbol id="tick-icon" viewBox="0 0 25 25">
        <path d="M12 2c5.514 0 10 4.486 10 10s-4.486 10-10 10-10-4.486-10-10 4.486-10 10-10zm0-2c-6.627 0-12 5.373-12 12s5.373 12 12 12 12-5.373 12-12-5.373-12-12-12zm-1.959 17l-4.5-4.319 1.395-1.435 3.08 2.937 7.021-7.183 1.422 1.409-8.418 8.591z"/>
    </symbol>
    <symbol id="cart-icon" viewBox="0 0 25 25">
        <path d="M10 19.5c0 .829-.672 1.5-1.5 1.5s-1.5-.671-1.5-1.5c0-.828.672-1.5 1.5-1.5s1.5.672 1.5 1.5zm3.5-1.5c-.828 0-1.5.671-1.5 1.5s.672 1.5 1.5 1.5 1.5-.671 1.5-1.5c0-.828-.672-1.5-1.5-1.5zm1.336-5l1.977-7h-16.813l2.938 7h11.898zm4.969-10l-3.432 12h-12.597l.839 2h13.239l3.474-12h1.929l.743-2h-4.195z"/>
    </symbol>
    <symbol id="cross-icon" viewBox="0 0 25 25">
        <path d="M12 0c-6.627 0-12 5.373-12 12s5.373 12 12 12 12-5.373 12-12-5.373-12-12-12zm4.151 17.943l-4.143-4.102-4.117 4.159-1.833-1.833 4.104-4.157-4.162-4.119 1.833-1.833 4.155 4.102 4.106-4.16 1.849 1.849-4.1 4.141 4.157 4.104-1.849 1.849z"/>
    </symbol>
    <symbol id="loader-icon" viewBox="0 0 24 24">
        <path d="M12 0c3.31 0 6.291 1.353 8.459 3.522l2.48-2.48 1.061 7.341-7.437-.966 2.489-2.489c-1.808-1.807-4.299-2.928-7.052-2.928-5.514 0-10 4.486-10 10s4.486 10 10 10c3.872 0 7.229-2.216 8.89-5.443l1.717 1.046c-2.012 3.803-6.005 6.397-10.607 6.397-6.627 0-12-5.373-12-12s5.373-12 12-12z"/>
    </symbol>
</svg>